<mxfile host="app.diagrams.net" agent="Mozilla/5.0 (Windows NT 10.0; Win64; x64) AppleWebKit/537.36 (KHTML, like Gecko) Chrome/131.0.0.0 Safari/537.36" version="25.0.3" pages="3">
  <diagram name="Página-1" id="D7EdAHdICDSmDCPl53MW">
    <mxGraphModel dx="2261" dy="780" grid="1" gridSize="10" guides="1" tooltips="1" connect="1" arrows="1" fold="1" page="1" pageScale="1" pageWidth="827" pageHeight="1169" math="0" shadow="0">
      <root>
        <mxCell id="0" />
        <mxCell id="1" parent="0" />
        <mxCell id="H2aLQbJ-oQhVmnJMrdXi-1" value="ENCRYPT" style="rounded=0;whiteSpace=wrap;html=1;" parent="1" vertex="1">
          <mxGeometry x="590" y="90" width="160" height="80" as="geometry" />
        </mxCell>
        <mxCell id="H2aLQbJ-oQhVmnJMrdXi-3" value="AUTH" style="rounded=0;whiteSpace=wrap;html=1;" parent="1" vertex="1">
          <mxGeometry x="440" y="320" width="160" height="80" as="geometry" />
        </mxCell>
        <mxCell id="H2aLQbJ-oQhVmnJMrdXi-4" value="BACKEND" style="rounded=0;whiteSpace=wrap;html=1;" parent="1" vertex="1">
          <mxGeometry x="780" y="460" width="160" height="80" as="geometry" />
        </mxCell>
        <mxCell id="H2aLQbJ-oQhVmnJMrdXi-6" value="1" style="edgeStyle=orthogonalEdgeStyle;rounded=0;orthogonalLoop=1;jettySize=auto;html=1;exitX=1;exitY=0.25;exitDx=0;exitDy=0;entryX=0;entryY=0.25;entryDx=0;entryDy=0;" parent="1" source="H2aLQbJ-oQhVmnJMrdXi-5" edge="1">
          <mxGeometry relative="1" as="geometry">
            <mxPoint x="400" y="340" as="targetPoint" />
          </mxGeometry>
        </mxCell>
        <mxCell id="H2aLQbJ-oQhVmnJMrdXi-5" value="FRONTEND" style="rounded=0;whiteSpace=wrap;html=1;" parent="1" vertex="1">
          <mxGeometry x="-40" y="320" width="160" height="80" as="geometry" />
        </mxCell>
      </root>
    </mxGraphModel>
  </diagram>
  <diagram id="ILowJTOJFZzwkoVxoM9N" name="Página-2">
    <mxGraphModel dx="1434" dy="1949" grid="1" gridSize="10" guides="1" tooltips="1" connect="1" arrows="1" fold="1" page="1" pageScale="1" pageWidth="827" pageHeight="1169" math="0" shadow="0">
      <root>
        <mxCell id="0" />
        <mxCell id="1" parent="0" />
        <mxCell id="7a5OQl29UHZ45pGD7diE-1" value="LOGOUT" style="rounded=0;whiteSpace=wrap;html=1;" vertex="1" parent="1">
          <mxGeometry x="320" y="-20" width="120" height="60" as="geometry" />
        </mxCell>
        <mxCell id="7a5OQl29UHZ45pGD7diE-2" value="ADD TOKEN TO BLACKLIST" style="rounded=0;whiteSpace=wrap;html=1;" vertex="1" parent="1">
          <mxGeometry x="320" y="140" width="120" height="60" as="geometry" />
        </mxCell>
        <mxCell id="7a5OQl29UHZ45pGD7diE-3" value="REMOVE TOKEN FROM BD" style="rounded=0;whiteSpace=wrap;html=1;" vertex="1" parent="1">
          <mxGeometry x="320" y="60" width="120" height="60" as="geometry" />
        </mxCell>
        <mxCell id="7a5OQl29UHZ45pGD7diE-6" value="MICROSERVICE KEY" style="edgeStyle=orthogonalEdgeStyle;rounded=0;orthogonalLoop=1;jettySize=auto;html=1;exitX=0.5;exitY=1;exitDx=0;exitDy=0;entryX=0;entryY=0.5;entryDx=0;entryDy=0;" edge="1" parent="1" source="7a5OQl29UHZ45pGD7diE-4" target="7a5OQl29UHZ45pGD7diE-5">
          <mxGeometry relative="1" as="geometry" />
        </mxCell>
        <mxCell id="7a5OQl29UHZ45pGD7diE-4" value="PROPAGATE BLACKLIST CHANGES TO OTHERS MICROSERVICES" style="rounded=0;whiteSpace=wrap;html=1;" vertex="1" parent="1">
          <mxGeometry x="320" y="220" width="120" height="100" as="geometry" />
        </mxCell>
        <mxCell id="7a5OQl29UHZ45pGD7diE-5" value="ADD TOKEN TO BLACKLIST" style="rounded=0;whiteSpace=wrap;html=1;" vertex="1" parent="1">
          <mxGeometry x="520" y="340" width="120" height="60" as="geometry" />
        </mxCell>
        <mxCell id="7a5OQl29UHZ45pGD7diE-7" value="TOKEN KEYS" style="rounded=0;whiteSpace=wrap;html=1;" vertex="1" parent="1">
          <mxGeometry x="80" y="460" width="120" height="60" as="geometry" />
        </mxCell>
        <mxCell id="7a5OQl29UHZ45pGD7diE-8" value="MICROSERVICE SIGN KEY" style="rounded=0;whiteSpace=wrap;html=1;" vertex="1" parent="1">
          <mxGeometry x="80" y="540" width="120" height="60" as="geometry" />
        </mxCell>
        <mxCell id="7a5OQl29UHZ45pGD7diE-9" value="MICROSERVICE SIGN KEY" style="rounded=0;whiteSpace=wrap;html=1;" vertex="1" parent="1">
          <mxGeometry x="520" y="480" width="120" height="60" as="geometry" />
        </mxCell>
      </root>
    </mxGraphModel>
  </diagram>
  <diagram id="dknWpLhTH3Qt5XMzy1rs" name="Login">
    <mxGraphModel dx="1434" dy="780" grid="1" gridSize="10" guides="1" tooltips="1" connect="1" arrows="1" fold="1" page="1" pageScale="1" pageWidth="827" pageHeight="1169" math="0" shadow="0">
      <root>
        <mxCell id="0" />
        <mxCell id="1" parent="0" />
        <mxCell id="AdYIPIqVyrVxOKSqW4Gj-1" value="Login request" style="verticalLabelPosition=middle;verticalAlign=middle;html=1;shape=card;whiteSpace=wrap;size=20;arcSize=12;labelPosition=center;align=center;" vertex="1" parent="1">
          <mxGeometry x="280" y="80" width="160" height="80" as="geometry" />
        </mxCell>
        <mxCell id="AdYIPIqVyrVxOKSqW4Gj-2" value="" style="rounded=0;whiteSpace=wrap;html=1;" vertex="1" parent="1">
          <mxGeometry x="280" y="200" width="160" height="80" as="geometry" />
        </mxCell>
      </root>
    </mxGraphModel>
  </diagram>
</mxfile>
